<svg id="Layer_1" data-name="Layer 1" xmlns="http://www.w3.org/2000/svg" viewBox="0 0 180 65"><defs><style>.cls-1{fill:#fff;}</style></defs><title>logo-zenvia-mono-2</title><rect class="cls-1" x="154.99" y="27.12" width="10" height="12.89"></rect><rect class="cls-1" x="139.98" y="15.01" width="12.89" height="10"></rect><rect class="cls-1" x="154.99" y="15.01" width="10" height="10"></rect><rect class="cls-1" x="170" y="12.11" width="10" height="12.89"></rect><rect class="cls-1" x="154.99" width="12.89" height="10"></rect><rect class="cls-1" x="170" width="10" height="10"></rect><path class="cls-1" d="M65.2,35c7.18,0,10.31,2.94,11.75,5.37,1.62,2.58,2.11,5.88,2.14,9V65h-8.2V52.67c0-2.66,0-6.07-.75-8.17s-2.27-3.63-6-3.63H60.6V65H52.4V35Z"></path><path class="cls-1" d="M118.43,32.5V25h-8.17v5.47a2,2,0,0,0,2,2Z"></path><path class="cls-1" d="M118.43,65V37.06a2,2,0,0,0-2-2.06h-6.14V65Z"></path><path class="cls-1" d="M93.91,53.24l5.81-16.3A3.12,3.12,0,0,1,102.45,35h5.78L96.82,65H90.67L78.57,35h6.81a3.11,3.11,0,0,1,2.72,1.93Z"></path><path class="cls-1" d="M46.57,38.4c-2.81-3.67-8-3.87-11.34-3.54a11.32,11.32,0,0,0-8.69,5c-1.94,3-2.5,7-2.34,10.76a15.94,15.94,0,0,0,3.29,10C30,63.75,33.94,65,39.59,65h8.32l-.55-4.35a1.86,1.86,0,0,0-1.78-1.59H40.74c-5.54,0-8.12-2.09-8.2-6.49H49.37c0-6.32,0-10.5-2.8-14.17m-14.08,9a10.07,10.07,0,0,1,1.24-5.25,4,4,0,0,1,7.12.39,12.19,12.19,0,0,1,1.08,4.86Z"></path><path class="cls-1" d="M22.71,41c2.27-3.3,1.09-6-2.62-6H.59l.54,4.28a1.86,1.86,0,0,0,1.78,1.59H13.15a2.79,2.79,0,0,1-.61,1.49C12.29,42.77,1.15,59,1.15,59-1.11,62.3.07,65,3.77,65H24.06l-.55-4.35a1.86,1.86,0,0,0-1.78-1.59h-11a2.87,2.87,0,0,1,.61-1.5L22.71,41"></path><path class="cls-1" d="M141.63,38.1A11.37,11.37,0,0,0,133.17,35h-8.73l.56,4.26a1.88,1.88,0,0,0,1.79,1.6H133a4.12,4.12,0,0,1,3.7,2,7.92,7.92,0,0,1,.72,4c-2.11-.15-4.22-.09-6.32,0-2.62.15-5.5.57-7.53,2.7s-2.31,5.31-2,8.16a7.22,7.22,0,0,0,3.06,5.49c2.52,1.59,5.69,1.76,8.25,1.76H145V47a12.16,12.16,0,0,0-3.37-8.93m-4.17,21h-4c-2,0-3.38-.37-4-1.7a6.43,6.43,0,0,1-.05-3.8,3,3,0,0,1,2.85-1.82c1.64-.09,5.17-.06,5.17-.06Z"></path></svg>